# xmcd CD database file
#
# Track frame offsets:
#	150
#	6183
#	19800
#	35938
#	50344
#	64156
#	93682
#	123138
#	133810
#	145297
#
# Disc length: 2209 seconds
#
# Revision: 0
# Processed by: cddbd v1.5.2PL0 Copyright (c) Steve Scherf et al.
# Submitted via: CDex 1.70
#
DISCID=90089f0a
DTITLE=Build An Ark - Dawn
DYEAR=2007
DGENRE=Jazz
TTITLE0=Sunshine
TTITLE1=Healing Song
TTITLE2=Love, Sweet Like Sugar Cane
TTITLE3=Dawn
TTITLE4=River Run
TTITLE5=When Ancestors Speak
TTITLE6=Morning Glory
TTITLE7=In Her Smile
TTITLE8="You Yourself Are The Key To The Universe."
TTITLE9=Heaven
EXTD=YEAR: 2007
EXTT0=
EXTT1=
EXTT2=
EXTT3=
EXTT4=
EXTT5=
EXTT6=
EXTT7=
EXTT8=
EXTT9=
PLAYORDER=
